# xmcd
#
# Track frame offsets:
#	150
#	21613
#	33574
#	46308
#	63144
#	77744
#	93266
#	106106
#	117627
#	128519
#	142000
#	155715
#	166743
#	183461
#
# Disc length: 2592 seconds
#
# Revision: 2
# Processed by: cddbd v1.5.2PL0 Copyright (c) Steve Scherf et al.
# Submitted via: audiograbber 1.83.01
#
DISCID=b90a1e0e
DTITLE=Various Artist - SBG005
DYEAR=1900
DGENRE=Karaoke
TTITLE0=Rod Stewart - Sailing
TTITLE1=The Beatles - Can't Buy Me Love
TTITLE2=The Beatles - Help
TTITLE3=The Beatles - Ticket To Ride 
TTITLE4=Tom Jones - Green Green Grass Of Home
TTITLE5=Engelbert Humperdinck - Release Me
TTITLE6=The Beatles - A Hard Day's Night
TTITLE7=The Everly Brothers - Bye Bye Love
TTITLE8=The Beatles - Yesterday
TTITLE9=Jerry Butler - Moon River
TTITLE10=The Archies - Sugar Sugar
TTITLE11=Elivs Presley - Return To Sender
TTITLE12=Andy Williams - Can't Help Falling In Love
TTITLE13=Neil Sedaka - Oh Carol
EXTD=
EXTT0=
EXTT1=
EXTT2=
EXTT3=
EXTT4=
EXTT5=
EXTT6=
EXTT7=
EXTT8=
EXTT9=
EXTT10=
EXTT11=
EXTT12=
EXTT13=
PLAYORDER=
